<svg id="Layer_1" data-name="Layer 1" xmlns="http://www.w3.org/2000/svg" viewBox="0 0 156.74 99.44"><defs><style>.cls-1{fill:#cdcbd8;}.cls-2{fill:none;}</style></defs><title>ybtn</title><g id="jw3beU.tif"><path class="cls-1" d="M581.79,502.79a24.33,24.33,0,0,1-17.89,6.7,43.63,43.63,0,0,1-4.63-.39A26.57,26.57,0,0,1,543.41,501,52.4,52.4,0,0,1,532.27,485a36.35,36.35,0,0,1-2.94-18.88c2.5-21.25,19.13-35.88,39.57-44.86s44.7-12.29,62.48-10.9c12.85,1,28.2,5.17,39.32,13.06s18,19.5,14,35.4c-1.79,7-7.05,13.54-14,18.46a49.67,49.67,0,0,1-24.1,9c-8.23.67-23.66,1.55-38,4.71C597.87,493.31,587.76,497,581.79,502.79Z" transform="translate(-529.09 -410.06)"/></g><line class="cls-2" x1="27.98" y1="37.54" x2="27.6" y2="37.54"/><line class="cls-2" x1="69.48" y1="76.8" x2="68.29" y2="79.18"/></svg>